<?xml version="1.0" encoding="UTF-8" standalone="no"?>
<!DOCTYPE svg PUBLIC "-//W3C//DTD SVG 1.1//EN"
 "http://www.w3.org/Graphics/SVG/1.1/DTD/svg11.dtd">
<!-- Generated by graphviz version 9.0.0 (20230911.1827)
 -->
<!-- Pages: 1 -->
<svg width="880pt" height="548pt"
 viewBox="0.00 0.00 880.19 548.00" xmlns="http://www.w3.org/2000/svg" xmlns:xlink="http://www.w3.org/1999/xlink">
<g id="graph0" class="graph" transform="scale(1 1) rotate(0) translate(4 544)">
<polygon fill="white" stroke="none" points="-4,4 -4,-544 876.19,-544 876.19,4 -4,4"/>
<!-- [root] aci_application_epg.mfr_epg1 (expand) -->
<g id="node1" class="node">
<title>[root] aci_application_epg.mfr_epg1 (expand)</title>
<polygon fill="none" stroke="black" points="396.81,-252 215.06,-252 215.06,-216 396.81,-216 396.81,-252"/>
<text text-anchor="middle" x="305.93" y="-228.95" font-family="Times,serif" font-size="14.00">aci_application_epg.mfr_epg1</text>
</g>
<!-- [root] aci_application_profile.mfr_app1 (expand) -->
<g id="node2" class="node">
<title>[root] aci_application_profile.mfr_app1 (expand)</title>
<polygon fill="none" stroke="black" points="348.06,-180 149.81,-180 149.81,-144 348.06,-144 348.06,-180"/>
<text text-anchor="middle" x="248.93" y="-156.95" font-family="Times,serif" font-size="14.00">aci_application_profile.mfr_app1</text>
</g>
<!-- [root] aci_application_epg.mfr_epg1 (expand)&#45;&gt;[root] aci_application_profile.mfr_app1 (expand) -->
<g id="edge1" class="edge">
<title>[root] aci_application_epg.mfr_epg1 (expand)&#45;&gt;[root] aci_application_profile.mfr_app1 (expand)</title>
<path fill="none" stroke="black" d="M291.84,-215.7C285.29,-207.64 277.35,-197.89 270.09,-188.98"/>
<polygon fill="black" stroke="black" points="272.85,-186.82 263.82,-181.28 267.42,-191.24 272.85,-186.82"/>
</g>
<!-- [root] aci_bridge_domain.mfr_bd1 (expand) -->
<g id="node3" class="node">
<title>[root] aci_bridge_domain.mfr_bd1 (expand)</title>
<polygon fill="none" stroke="black" points="537.93,-180 365.93,-180 365.93,-144 537.93,-144 537.93,-180"/>
<text text-anchor="middle" x="451.93" y="-156.95" font-family="Times,serif" font-size="14.00">aci_bridge_domain.mfr_bd1</text>
</g>
<!-- [root] aci_application_epg.mfr_epg1 (expand)&#45;&gt;[root] aci_bridge_domain.mfr_bd1 (expand) -->
<g id="edge2" class="edge">
<title>[root] aci_application_epg.mfr_epg1 (expand)&#45;&gt;[root] aci_bridge_domain.mfr_bd1 (expand)</title>
<path fill="none" stroke="black" d="M342.4,-215.52C361.46,-206.38 385,-195.09 405.36,-185.33"/>
<polygon fill="black" stroke="black" points="406.81,-188.52 414.32,-181.04 403.78,-182.2 406.81,-188.52"/>
</g>
<!-- [root] aci_tenant.mfr_tenant (expand) -->
<g id="node6" class="node">
<title>[root] aci_tenant.mfr_tenant (expand)</title>
<polygon fill="none" stroke="black" points="519.56,-108 384.31,-108 384.31,-72 519.56,-72 519.56,-108"/>
<text text-anchor="middle" x="451.93" y="-84.95" font-family="Times,serif" font-size="14.00">aci_tenant.mfr_tenant</text>
</g>
<!-- [root] aci_application_profile.mfr_app1 (expand)&#45;&gt;[root] aci_tenant.mfr_tenant (expand) -->
<g id="edge3" class="edge">
<title>[root] aci_application_profile.mfr_app1 (expand)&#45;&gt;[root] aci_tenant.mfr_tenant (expand)</title>
<path fill="none" stroke="black" d="M299.64,-143.52C327.23,-134 361.57,-122.16 390.66,-112.13"/>
<polygon fill="black" stroke="black" points="391.78,-115.44 400.1,-108.88 389.5,-108.83 391.78,-115.44"/>
</g>
<!-- [root] aci_bridge_domain.mfr_bd1 (expand)&#45;&gt;[root] aci_tenant.mfr_tenant (expand) -->
<g id="edge4" class="edge">
<title>[root] aci_bridge_domain.mfr_bd1 (expand)&#45;&gt;[root] aci_tenant.mfr_tenant (expand)</title>
<path fill="none" stroke="black" d="M451.93,-143.7C451.93,-136.41 451.93,-127.73 451.93,-119.54"/>
<polygon fill="black" stroke="black" points="455.43,-119.62 451.93,-109.62 448.43,-119.62 455.43,-119.62"/>
</g>
<!-- [root] aci_rest.mfr_epg1_subnet1_dp_learning (expand) -->
<g id="node4" class="node">
<title>[root] aci_rest.mfr_epg1_subnet1_dp_learning (expand)</title>
<polygon fill="none" stroke="black" points="423.43,-396 188.43,-396 188.43,-360 423.43,-360 423.43,-396"/>
<text text-anchor="middle" x="305.93" y="-372.95" font-family="Times,serif" font-size="14.00">aci_rest.mfr_epg1_subnet1_dp_learning</text>
</g>
<!-- [root] aci_subnet.mfr_epg1_subnet1 (expand) -->
<g id="node5" class="node">
<title>[root] aci_subnet.mfr_epg1_subnet1 (expand)</title>
<polygon fill="none" stroke="black" points="395.68,-324 216.18,-324 216.18,-288 395.68,-288 395.68,-324"/>
<text text-anchor="middle" x="305.93" y="-300.95" font-family="Times,serif" font-size="14.00">aci_subnet.mfr_epg1_subnet1</text>
</g>
<!-- [root] aci_rest.mfr_epg1_subnet1_dp_learning (expand)&#45;&gt;[root] aci_subnet.mfr_epg1_subnet1 (expand) -->
<g id="edge5" class="edge">
<title>[root] aci_rest.mfr_epg1_subnet1_dp_learning (expand)&#45;&gt;[root] aci_subnet.mfr_epg1_subnet1 (expand)</title>
<path fill="none" stroke="black" d="M305.93,-359.7C305.93,-352.41 305.93,-343.73 305.93,-335.54"/>
<polygon fill="black" stroke="black" points="309.43,-335.62 305.93,-325.62 302.43,-335.62 309.43,-335.62"/>
</g>
<!-- [root] aci_subnet.mfr_epg1_subnet1 (expand)&#45;&gt;[root] aci_application_epg.mfr_epg1 (expand) -->
<g id="edge6" class="edge">
<title>[root] aci_subnet.mfr_epg1_subnet1 (expand)&#45;&gt;[root] aci_application_epg.mfr_epg1 (expand)</title>
<path fill="none" stroke="black" d="M305.93,-287.7C305.93,-280.41 305.93,-271.73 305.93,-263.54"/>
<polygon fill="black" stroke="black" points="309.43,-263.62 305.93,-253.62 302.43,-263.62 309.43,-263.62"/>
</g>
<!-- [root] provider[&quot;registry.terraform.io/ciscodevnet/aci&quot;] -->
<g id="node8" class="node">
<title>[root] provider[&quot;registry.terraform.io/ciscodevnet/aci&quot;]</title>
<polygon fill="none" stroke="black" points="508.93,-36 238.71,-18 508.93,0 779.15,-18 508.93,-36"/>
<text text-anchor="middle" x="508.93" y="-12.95" font-family="Times,serif" font-size="14.00">provider[&quot;registry.terraform.io/ciscodevnet/aci&quot;]</text>
</g>
<!-- [root] aci_tenant.mfr_tenant (expand)&#45;&gt;[root] provider[&quot;registry.terraform.io/ciscodevnet/aci&quot;] -->
<g id="edge7" class="edge">
<title>[root] aci_tenant.mfr_tenant (expand)&#45;&gt;[root] provider[&quot;registry.terraform.io/ciscodevnet/aci&quot;]</title>
<path fill="none" stroke="black" d="M466.02,-71.7C472.85,-63.32 481.17,-53.1 488.66,-43.9"/>
<polygon fill="black" stroke="black" points="491.23,-46.28 494.83,-36.32 485.8,-41.86 491.23,-46.28"/>
</g>
<!-- [root] aci_tenant.new&#45;tenant (expand) -->
<g id="node7" class="node">
<title>[root] aci_tenant.new&#45;tenant (expand)</title>
<polygon fill="none" stroke="black" points="633.56,-396 498.31,-396 498.31,-360 633.56,-360 633.56,-396"/>
<text text-anchor="middle" x="565.93" y="-372.95" font-family="Times,serif" font-size="14.00">aci_tenant.new&#45;tenant</text>
</g>
<!-- [root] aci_tenant.new&#45;tenant (expand)&#45;&gt;[root] provider[&quot;registry.terraform.io/ciscodevnet/aci&quot;] -->
<g id="edge8" class="edge">
<title>[root] aci_tenant.new&#45;tenant (expand)&#45;&gt;[root] provider[&quot;registry.terraform.io/ciscodevnet/aci&quot;]</title>
<path fill="none" stroke="black" d="M565.93,-359.51C565.93,-332.71 565.93,-279.87 565.93,-235 565.93,-235 565.93,-235 565.93,-161 565.93,-118.13 543.28,-72.88 526.54,-45.29"/>
<polygon fill="black" stroke="black" points="529.55,-43.51 521.27,-36.9 523.62,-47.23 529.55,-43.51"/>
</g>
<!-- [root] meta.count&#45;boundary (EachMode fixup) -->
<g id="node9" class="node">
<title>[root] meta.count&#45;boundary (EachMode fixup)</title>
<ellipse fill="none" stroke="black" cx="184.93" cy="-450" rx="184.93" ry="18"/>
<text text-anchor="middle" x="184.93" y="-444.95" font-family="Times,serif" font-size="14.00">[root] meta.count&#45;boundary (EachMode fixup)</text>
</g>
<!-- [root] meta.count&#45;boundary (EachMode fixup)&#45;&gt;[root] aci_rest.mfr_epg1_subnet1_dp_learning (expand) -->
<g id="edge9" class="edge">
<title>[root] meta.count&#45;boundary (EachMode fixup)&#45;&gt;[root] aci_rest.mfr_epg1_subnet1_dp_learning (expand)</title>
<path fill="none" stroke="black" d="M214.53,-431.88C230.09,-422.88 249.37,-411.72 266.21,-401.98"/>
<polygon fill="black" stroke="black" points="267.59,-405.23 274.49,-397.19 264.08,-399.17 267.59,-405.23"/>
</g>
<!-- [root] meta.count&#45;boundary (EachMode fixup)&#45;&gt;[root] aci_tenant.new&#45;tenant (expand) -->
<g id="edge10" class="edge">
<title>[root] meta.count&#45;boundary (EachMode fixup)&#45;&gt;[root] aci_tenant.new&#45;tenant (expand)</title>
<path fill="none" stroke="black" d="M269.02,-433.55C333.93,-421.63 423.11,-405.24 486.76,-393.55"/>
<polygon fill="black" stroke="black" points="487.25,-397.02 496.45,-391.77 485.98,-390.13 487.25,-397.02"/>
</g>
<!-- [root] provider[&quot;registry.terraform.io/ciscodevnet/aci&quot;] (close) -->
<g id="node10" class="node">
<title>[root] provider[&quot;registry.terraform.io/ciscodevnet/aci&quot;] (close)</title>
<ellipse fill="none" stroke="black" cx="629.93" cy="-450" rx="242.26" ry="18"/>
<text text-anchor="middle" x="629.93" y="-444.95" font-family="Times,serif" font-size="14.00">[root] provider[&quot;registry.terraform.io/ciscodevnet/aci&quot;] (close)</text>
</g>
<!-- [root] provider[&quot;registry.terraform.io/ciscodevnet/aci&quot;] (close)&#45;&gt;[root] aci_rest.mfr_epg1_subnet1_dp_learning (expand) -->
<g id="edge11" class="edge">
<title>[root] provider[&quot;registry.terraform.io/ciscodevnet/aci&quot;] (close)&#45;&gt;[root] aci_rest.mfr_epg1_subnet1_dp_learning (expand)</title>
<path fill="none" stroke="black" d="M553.56,-432.5C506.95,-422.43 447.06,-409.49 397.86,-398.86"/>
<polygon fill="black" stroke="black" points="398.88,-395.5 388.37,-396.81 397.4,-402.34 398.88,-395.5"/>
</g>
<!-- [root] provider[&quot;registry.terraform.io/ciscodevnet/aci&quot;] (close)&#45;&gt;[root] aci_tenant.new&#45;tenant (expand) -->
<g id="edge12" class="edge">
<title>[root] provider[&quot;registry.terraform.io/ciscodevnet/aci&quot;] (close)&#45;&gt;[root] aci_tenant.new&#45;tenant (expand)</title>
<path fill="none" stroke="black" d="M614.11,-431.7C606.6,-423.47 597.46,-413.48 589.18,-404.42"/>
<polygon fill="black" stroke="black" points="591.92,-402.24 582.59,-397.22 586.76,-406.96 591.92,-402.24"/>
</g>
<!-- [root] root -->
<g id="node11" class="node">
<title>[root] root</title>
<ellipse fill="none" stroke="black" cx="406.93" cy="-522" rx="49.3" ry="18"/>
<text text-anchor="middle" x="406.93" y="-516.95" font-family="Times,serif" font-size="14.00">[root] root</text>
</g>
<!-- [root] root&#45;&gt;[root] meta.count&#45;boundary (EachMode fixup) -->
<g id="edge13" class="edge">
<title>[root] root&#45;&gt;[root] meta.count&#45;boundary (EachMode fixup)</title>
<path fill="none" stroke="black" d="M370.77,-509.6C337.75,-499.19 288.2,-483.56 248.56,-471.06"/>
<polygon fill="black" stroke="black" points="249.7,-467.75 239.11,-468.08 247.6,-474.43 249.7,-467.75"/>
</g>
<!-- [root] root&#45;&gt;[root] provider[&quot;registry.terraform.io/ciscodevnet/aci&quot;] (close) -->
<g id="edge14" class="edge">
<title>[root] root&#45;&gt;[root] provider[&quot;registry.terraform.io/ciscodevnet/aci&quot;] (close)</title>
<path fill="none" stroke="black" d="M443.26,-509.6C476.09,-499.29 525.19,-483.88 564.79,-471.45"/>
<polygon fill="black" stroke="black" points="565.76,-474.81 574.25,-468.48 563.66,-468.14 565.76,-474.81"/>
</g>
</g>
</svg>
